# This file uses centimeters as units for non-parametric coordinates.

mtllib RampLP.mtl
g default4
v 1245.685303 251.509384 208.937607
v 1536.254639 59.541492 136.530548
v 1243.036621 255.091049 190.859833
v 1533.605835 63.123280 118.452782
v 1235.218018 249.684311 174.850922
v 1525.787109 57.716541 102.443886
v 1232.569214 253.266098 156.773178
v 1523.138428 61.298206 84.366112
v 1224.750488 247.859238 140.764252
v 1515.319702 55.891468 68.357216
v 1222.101807 251.441025 122.686516
v 1512.670898 59.473255 50.279423
v 1214.283203 246.034164 106.677589
v 1504.852295 54.066395 34.270527
vt 0.000000 0.000000
vt 1.000000 0.000000
vt 1.000000 0.166667
vt 0.000000 0.166667
vt 1.000000 0.333333
vt 0.000000 0.333333
vt 1.000000 0.500000
vt 0.000000 0.500000
vt 1.000000 0.666667
vt 0.000000 0.666667
vt 1.000000 0.833333
vt 0.000000 0.833333
vt 1.000000 1.000000
vt 0.000000 1.000000
vn 0.563310 0.822325 0.080391
vn 0.563311 0.822325 0.080391
vn 0.505787 0.839871 -0.196971
vn 0.504016 0.839486 -0.203057
vn 0.504016 0.839486 -0.203057
vn 0.505787 0.839871 -0.196971
vn 0.504016 0.839485 -0.203057
vn 0.505787 0.839870 -0.196971
vn 0.505787 0.839870 -0.196971
vn 0.504016 0.839485 -0.203057
vn 0.505786 0.839870 -0.196974
vn 0.504015 0.839485 -0.203060
vn 0.504015 0.839485 -0.203060
vn 0.505786 0.839870 -0.196974
vn 0.504015 0.839485 -0.203059
vn 0.505786 0.839870 -0.196973
vn 0.505786 0.839870 -0.196973
vn 0.504015 0.839485 -0.203059
vn 0.505786 0.839871 -0.196972
vn 0.504015 0.839486 -0.203057
vn 0.504015 0.839486 -0.203057
vn 0.505786 0.839871 -0.196972
vn 0.404953 0.787922 -0.463889
vn 0.404953 0.787922 -0.463889
s off
g Section3 SectionA SectionA1 pPlane2 polySurface52 polySurface726 polySurface1
usemtl SceneSec7_initialShadingGroup
f 1/1/1 2/2/2 4/3/3 3/4/4
f 3/4/5 4/3/6 6/5/7 5/6/8
f 5/6/9 6/5/10 8/7/11 7/8/12
f 7/8/13 8/7/14 10/9/15 9/10/16
f 9/10/17 10/9/18 12/11/19 11/12/20
f 11/12/21 12/11/22 14/13/23 13/14/24
