# This file uses centimeters as units for non-parametric coordinates.

mtllib Rock5.mtl
g default
v 1.564162 3.921693 -5.085621
v 1.484057 4.026878 -1.146599
v 2.792428 1.554312 -3.092604
v 1.221363 1.312558 -6.204503
v 3.932620 -2.639346 -1.760530
v 1.240404 -2.619015 -4.467587
v 2.644170 -6.410376 -1.085955
v 1.314821 -6.762429 -4.265952
v 1.354009 -9.038443 -2.041988
v 1.295280 -8.754493 -3.848554
v 1.311643 -7.153029 -4.889478
v 1.298139 -8.526175 -4.564839
v 1.427289 4.837581 -0.385127
v 4.216614 1.626794 -2.288490
v 3.759243 -2.540117 -0.909377
v 3.986822 -6.150445 -0.311019
v 1.284424 -9.440274 0.748996
v 1.285463 -9.558873 -1.601631
v 1.280293 -9.897498 0.462495
v 4.454926 5.583990 1.915606
v 4.340775 1.823270 0.279092
v 2.450809 -2.400767 1.261884
v 4.097040 -6.213791 2.143916
v 4.007694 -9.129641 3.191796
v 1.277428 -10.087640 1.579696
v 1.312808 -10.251113 3.675614
v 2.750385 6.042714 4.309835
v 1.386828 1.154920 3.651761
v 1.425839 5.868381 6.024613
v 1.393045 1.798597 4.617706
v 3.731650 -3.095731 3.805505
v 2.530663 -5.518574 4.429485
v 3.907558 -8.286456 5.196544
v 1.278179 -9.640219 5.407994
v 1.380999 0.551472 4.778697
v 1.228068 -3.175524 4.235251
v 1.313445 -5.915684 5.995919
v 1.292460 -8.078059 6.204503
v 1.285563 -8.825282 5.895467
v 1.450216 7.232594 -0.486200
v 4.527821 8.088142 1.984214
v 4.403573 8.260796 4.136769
v 1.451877 8.582309 5.878243
v 1.467704 9.348977 1.005754
v 1.510719 10.251113 3.153277
v 1.463497 9.503243 4.239888
v 1.465909 9.899960 5.013888
v -1.082618 4.243463 -5.085621
v -1.304368 4.026878 -1.146599
v -4.214653 1.554312 -3.092604
v -1.425418 1.634329 -6.204503
v -3.987198 -2.639346 -1.760530
v -1.209778 -2.619015 -4.467587
v -2.836586 -6.410376 -1.085955
v -1.351446 -6.762429 -4.265952
v -1.434417 -9.038443 -2.041988
v -1.370987 -8.754493 -3.848554
v -1.354623 -7.153029 -4.889478
v -1.368128 -8.526175 -4.564839
v -0.965053 4.837581 -0.385127
v -4.256274 1.626794 -2.288490
v -2.581796 -2.540117 -0.909377
v -4.527821 -6.150445 -0.311019
v -1.133879 -9.440274 0.748996
v -1.380805 -9.558873 -1.601631
v -1.385974 -9.897498 0.462495
v -4.022187 5.583990 1.915606
v -4.136338 1.823270 0.279092
v -3.923649 -2.400767 1.261884
v -4.380073 -6.213791 2.143916
v -4.469420 -9.129641 3.191796
v -1.388840 -10.087640 1.579696
v -0.917403 -10.251113 3.675614
v -3.903205 6.042714 4.309835
v -0.821690 1.154920 3.651761
v -1.240428 5.868381 6.024613
v -1.273222 1.798597 4.617706
v -3.841207 -3.095731 3.805505
v -4.248709 -5.518574 4.429485
v -4.333161 -8.286456 5.196544
v -1.388088 -9.640219 5.407994
v -1.285267 0.551472 4.778697
v -1.222112 -3.175524 4.235251
v -1.352823 -5.915684 5.995919
v -1.373806 -8.078059 6.204503
v -1.380705 -8.825282 5.895467
v -1.216051 7.232594 -0.486200
v -3.949292 8.088142 1.984214
v -3.837147 8.260796 4.136769
v -1.214391 8.582309 5.878243
v -1.198562 9.348977 1.005754
v -1.232031 10.251113 3.153277
v -1.202770 9.503243 4.239888
v -1.200357 9.899960 5.013888
vt 0.384797 0.347926
vt 0.350269 0.428442
vt 0.228713 0.431688
vt 0.288766 0.355387
vt 0.247659 0.225973
vt 0.331197 0.226601
vt 0.263951 0.357623
vt 0.221393 0.229035
vt 0.226842 0.109602
vt 0.324974 0.098738
vt 0.184718 0.363686
vt 0.154389 0.233336
vt 0.202928 0.117623
vt 0.256345 0.028502
vt 0.312094 0.037264
vt 0.205215 0.456706
vt 0.134216 0.479739
vt 0.080640 0.343062
vt 0.075895 0.211890
vt 0.127171 0.115669
vt 0.170217 0.016102
vt 0.334198 0.044310
vt 0.344216 0.086684
vt 0.208334 0.530614
vt 0.132099 0.557016
vt 0.060332 0.493895
vt 0.045863 0.324440
vt 0.062634 0.209427
vt 0.056640 0.137122
vt 0.094834 0.025688
vt 0.179058 0.001992
vt 0.242755 0.012442
vt 0.065673 0.562344
vt 0.007415 0.488516
vt 0.050831 0.362925
vt 0.032969 0.051708
vt 0.096022 0.623763
vt 0.062490 0.600685
vt 0.011932 0.572265
vt 0.008301 0.124868
vt 0.001864 0.058139
vt 0.038605 0.612927
vt 0.452106 0.098738
vt 0.464986 0.037264
vt 0.520736 0.028502
vt 0.550238 0.109602
vt 0.432864 0.086684
vt 0.442882 0.044310
vt 0.606863 0.016102
vt 0.574152 0.117623
vt 0.445883 0.226601
vt 0.529421 0.225973
vt 0.534325 0.012442
vt 0.598022 0.001992
vt 0.682246 0.025688
vt 0.649910 0.115669
vt 0.555687 0.229035
vt 0.392283 0.357856
vt 0.488314 0.355387
vt 0.744111 0.051708
vt 0.720441 0.137122
vt 0.622691 0.233336
vt 0.513129 0.357623
vt 0.548367 0.431688
vt 0.426811 0.438372
vt 0.701185 0.211890
vt 0.592363 0.363686
vt 0.571865 0.456706
vt 0.696441 0.343062
vt 0.642864 0.479739
vt 0.714447 0.209427
vt 0.731217 0.324440
vt 0.716748 0.493895
vt 0.644981 0.557016
vt 0.568746 0.530614
vt 0.726249 0.362925
vt 0.769665 0.488516
vt 0.711408 0.562344
vt 0.681058 0.623763
vt 0.614787 0.595924
vt 0.765148 0.572265
vt 0.714590 0.600685
vt 0.738475 0.612927
vt 0.849749 0.791479
vt 0.933787 0.866862
vt 0.850625 0.881792
vt 0.849533 0.817114
vt 0.930697 0.928727
vt 0.849556 0.935252
vt 0.781802 0.881792
vt 0.767254 0.817114
vt 0.775122 0.791479
vt 0.767277 0.935252
vt 0.672189 0.866862
vt 0.849621 0.782638
vt 0.767342 0.782638
vt 0.849784 0.950295
vt 0.767505 0.950295
vt 0.676394 0.928727
vt 0.849781 0.718940
vt 0.767502 0.718940
vt 0.851896 0.705351
vt 0.765847 0.705351
vt 0.850084 0.649602
vt 0.767805 0.649602
vt 0.850172 0.627498
vt 0.767893 0.627498
vt 0.153400 0.827815
vt 0.188176 0.827635
vt 0.188176 0.895788
vt 0.153400 0.910094
vt 0.222082 0.654171
vt 0.222008 0.678056
vt 0.139729 0.678056
vt 0.139803 0.654171
vt 0.223465 0.711588
vt 0.138826 0.711588
vt 0.221649 0.627498
vt 0.139370 0.627498
vt 0.222138 0.777859
vt 0.139859 0.777859
vt 0.316571 0.747665
vt 0.221598 0.823900
vt 0.139319 0.823900
vt 0.025362 0.911959
vt 0.146918 0.909487
vt 0.146918 0.991165
vt 0.025362 0.998008
vt 0.001864 0.913711
vt 0.001864 0.987537
vt 0.085415 0.871584
vt 0.060600 0.827635
vt 0.661020 0.829456
vt 0.583762 0.826994
vt 0.586396 0.742434
vt 0.623959 0.754689
vt 0.508151 0.826994
vt 0.504117 0.742434
vt 0.588481 0.942006
vt 0.506202 0.942006
vt 0.427328 0.829456
vt 0.414752 0.754689
vt 0.585749 0.675705
vt 0.503470 0.675705
vt 0.412146 0.669274
vt 0.585536 0.652646
vt 0.503257 0.652646
vt 0.503029 0.627498
vt 0.585308 0.627498
vt 0.666449 0.669274
vt 0.869306 0.011922
vt 0.858728 0.092438
vt 0.777050 0.082508
vt 0.787629 0.001992
vt 0.859315 0.213763
vt 0.783705 0.213763
vt 0.861612 0.341626
vt 0.779333 0.341626
vt 0.861514 0.353679
vt 0.779235 0.353679
vt 0.861097 0.396054
vt 0.778818 0.396054
vt 0.404590 0.647361
vt 0.405602 0.772952
vt 0.323323 0.772952
vt 0.322311 0.647361
vt 0.406406 0.856702
vt 0.324127 0.856702
vt 0.404398 0.627498
vt 0.336245 0.627498
vt 0.195341 0.827635
vt 0.269250 0.828342
vt 0.269250 0.902168
vt 0.195341 0.909914
vn 0.928926 0.303996 -0.211385
vn 0.928926 0.303996 -0.211385
vn 0.928926 0.303996 -0.211385
vn 0.928926 0.303996 -0.211385
vn 0.804023 -0.106261 -0.585027
vn 0.804023 -0.106261 -0.585027
vn 0.804023 -0.106261 -0.585027
vn 0.804023 -0.106261 -0.585027
vn 0.816198 -0.185769 -0.547093
vn 0.816198 -0.185769 -0.547093
vn 0.816198 -0.185769 -0.547094
vn 0.816198 -0.185769 -0.547093
vn 0.937079 -0.235605 -0.257631
vn 0.937079 -0.235605 -0.257631
vn 0.937079 -0.235605 -0.257631
vn 0.937079 -0.235605 -0.257631
vn 0.999953 -0.009615 0.000927
vn 0.999953 -0.009615 0.000927
vn 0.999953 -0.009615 0.000927
vn 0.999953 -0.009615 0.000927
vn 0.319368 0.678401 -0.661646
vn 0.319368 0.678401 -0.661646
vn 0.319368 0.678401 -0.661646
vn 0.319368 0.678401 -0.661646
vn 0.797710 -0.126084 -0.589714
vn 0.797710 -0.126084 -0.589714
vn 0.797710 -0.126084 -0.589714
vn 0.797710 -0.126084 -0.589714
vn 0.815166 -0.210235 -0.539728
vn 0.815166 -0.210235 -0.539728
vn 0.815166 -0.210235 -0.539728
vn 0.815166 -0.210235 -0.539728
vn 0.787654 -0.536713 -0.302557
vn 0.787654 -0.536713 -0.302557
vn 0.787654 -0.536713 -0.302557
vn 0.787654 -0.536713 -0.302557
vn 0.997288 -0.073484 0.004148
vn 0.997288 -0.073484 0.004148
vn 0.997288 -0.073484 0.004148
vn 0.997288 -0.073484 0.004148
vn 0.664443 0.525022 -0.531853
vn 0.664443 0.525022 -0.531853
vn 0.664443 0.525022 -0.531853
vn 0.664443 0.525022 -0.531853
vn 0.948266 -0.194685 0.250776
vn 0.948266 -0.194685 0.250776
vn 0.948266 -0.194685 0.250776
vn 0.948266 -0.194685 0.250776
vn 0.929926 0.281842 0.236227
vn 0.929926 0.281842 0.236227
vn 0.929926 0.281842 0.236227
vn 0.929926 0.281842 0.236227
vn 0.766416 -0.487043 -0.418804
vn 0.766416 -0.487043 -0.418804
vn 0.766416 -0.487043 -0.418804
vn 0.766416 -0.487043 -0.418804
vn 0.445781 -0.861524 -0.243014
vn 0.445781 -0.861524 -0.243014
vn 0.445781 -0.861524 -0.243014
vn 0.445781 -0.861524 -0.243014
vn 0.750402 -0.286282 0.595767
vn 0.750402 -0.286282 0.595767
vn 0.750402 -0.286282 0.595767
vn 0.750402 -0.286282 0.595767
vn 0.853952 -0.239601 0.461906
vn 0.853952 -0.239601 0.461906
vn 0.853952 -0.239601 0.461906
vn 0.853952 -0.239601 0.461906
vn 0.952726 0.090051 0.290179
vn 0.952726 0.090051 0.290179
vn 0.952726 0.090051 0.290179
vn 0.952726 0.090051 0.290179
vn 0.994625 0.085219 0.058805
vn 0.994625 0.085219 0.058805
vn 0.994626 0.085219 0.058805
vn 0.994625 0.085219 0.058805
vn 0.922561 0.290193 0.254299
vn 0.922562 0.290193 0.254299
vn 0.922561 0.290193 0.254299
vn 0.922561 0.290193 0.254299
vn 0.432577 -0.834855 0.340433
vn 0.432577 -0.834855 0.340433
vn 0.432577 -0.834855 0.340433
vn 0.432577 -0.834855 0.340433
vn 0.505458 0.096994 0.857382
vn 0.505458 0.096994 0.857382
vn 0.505458 0.096994 0.857382
vn 0.505458 0.096994 0.857382
vn 0.419767 0.304253 0.855117
vn 0.419767 0.304253 0.855117
vn 0.419767 0.304253 0.855117
vn 0.419767 0.304253 0.855117
vn 0.521426 0.301377 0.798302
vn 0.521426 0.301377 0.798302
vn 0.521426 0.301377 0.798302
vn 0.521426 0.301377 0.798302
vn 0.314222 -0.433509 0.844591
vn 0.314222 -0.433509 0.844591
vn 0.314222 -0.433509 0.844591
vn 0.314222 -0.433509 0.844591
vn 0.618481 -0.017303 -0.785609
vn 0.618481 -0.017303 -0.785609
vn 0.618481 -0.017303 -0.785609
vn 0.618481 -0.017303 -0.785609
vn 0.867001 -0.308248 0.391526
vn 0.867001 -0.308248 0.391526
vn 0.867001 -0.308248 0.391526
vn 0.867001 -0.308248 0.391526
vn 0.617135 -0.160224 0.770372
vn 0.617135 -0.160224 0.770372
vn 0.617135 -0.160224 0.770372
vn 0.617135 -0.160224 0.770372
vn 0.462146 0.678796 -0.570664
vn 0.462146 0.678796 -0.570664
vn 0.462146 0.678796 -0.570664
vn 0.462146 0.678796 -0.570664
vn 0.516607 0.837909 0.176144
vn 0.516607 0.837909 0.176144
vn 0.516607 0.837909 0.176144
vn 0.516607 0.837909 0.176144
vn 0.534641 0.735048 0.416969
vn 0.534641 0.735048 0.416969
vn 0.534641 0.735048 0.416969
vn 0.534641 0.735048 0.416969
vn -0.721921 0.632041 -0.281698
vn -0.721921 0.632041 -0.281698
vn -0.721921 0.632041 -0.281698
vn -0.721921 0.632041 -0.281698
vn -0.691626 -0.278412 -0.666439
vn -0.691626 -0.278412 -0.666439
vn -0.691626 -0.278412 -0.666439
vn -0.691626 -0.278412 -0.666439
vn -0.803184 -0.165741 -0.572211
vn -0.803184 -0.165741 -0.572211
vn -0.803184 -0.165741 -0.572211
vn -0.803184 -0.165741 -0.572211
vn -0.927024 -0.244248 -0.284550
vn -0.927024 -0.244248 -0.284550
vn -0.927024 -0.244248 -0.284550
vn -0.927024 -0.244248 -0.284550
vn -0.999953 0.009615 -0.000928
vn -0.999953 0.009615 -0.000928
vn -0.999953 0.009615 -0.000928
vn -0.999953 0.009615 -0.000928
vn -0.506391 0.788686 -0.348628
vn -0.506391 0.788686 -0.348628
vn -0.506391 0.788686 -0.348628
vn -0.506391 0.788686 -0.348628
vn -0.772957 0.029680 0.633764
vn -0.772957 0.029680 0.633764
vn -0.772957 0.029680 0.633764
vn -0.772957 0.029680 0.633764
vn -0.979390 0.073067 -0.188297
vn -0.979390 0.073067 -0.188297
vn -0.979390 0.073067 -0.188297
vn -0.979391 0.073067 -0.188297
vn -0.735723 -0.601722 -0.310874
vn -0.735723 -0.601722 -0.310874
vn -0.735723 -0.601722 -0.310874
vn -0.735723 -0.601722 -0.310874
vn -0.972989 0.211937 0.091516
vn -0.972989 0.211937 0.091516
vn -0.972989 0.211937 0.091516
vn -0.972989 0.211937 0.091516
vn -0.648719 0.571851 -0.502146
vn -0.648719 0.571851 -0.502146
vn -0.648718 0.571851 -0.502146
vn -0.648718 0.571851 -0.502146
vn -0.936042 -0.273013 -0.222012
vn -0.936042 -0.273013 -0.222012
vn -0.936042 -0.273013 -0.222012
vn -0.936042 -0.273013 -0.222012
vn -0.935547 0.253786 -0.245651
vn -0.935547 0.253786 -0.245651
vn -0.935547 0.253786 -0.245651
vn -0.935547 0.253786 -0.245651
vn -0.720703 -0.533960 -0.442125
vn -0.720703 -0.533960 -0.442125
vn -0.720703 -0.533960 -0.442125
vn -0.720703 -0.533960 -0.442125
vn -0.392235 -0.893527 -0.218544
vn -0.392235 -0.893527 -0.218544
vn -0.392235 -0.893527 -0.218544
vn -0.392235 -0.893527 -0.218544
vn -0.795645 -0.394871 0.459376
vn -0.795645 -0.394871 0.459376
vn -0.795645 -0.394871 0.459376
vn -0.795645 -0.394871 0.459376
vn -0.681194 -0.376577 0.627826
vn -0.681194 -0.376577 0.627826
vn -0.681194 -0.376577 0.627826
vn -0.681194 -0.376577 0.627826
vn -0.783738 0.330128 0.526089
vn -0.783738 0.330128 0.526089
vn -0.783738 0.330128 0.526089
vn -0.783738 0.330128 0.526089
vn -0.988101 0.147456 0.043739
vn -0.988101 0.147456 0.043739
vn -0.988101 0.147456 0.043739
vn -0.988101 0.147456 0.043739
vn -0.997916 0.045215 0.046036
vn -0.997916 0.045215 0.046036
vn -0.997916 0.045215 0.046036
vn -0.997916 0.045215 0.046036
vn -0.367299 -0.877438 0.308534
vn -0.367299 -0.877438 0.308534
vn -0.367299 -0.877438 0.308534
vn -0.367299 -0.877438 0.308534
vn -0.543707 0.161253 0.823639
vn -0.543707 0.161253 0.823639
vn -0.543707 0.161253 0.823639
vn -0.543707 0.161253 0.823639
vn -0.274976 0.426621 0.861616
vn -0.274976 0.426621 0.861616
vn -0.274976 0.426621 0.861616
vn -0.274976 0.426621 0.861616
vn -0.390357 0.186750 0.901524
vn -0.390357 0.186750 0.901524
vn -0.390357 0.186750 0.901524
vn -0.390357 0.186750 0.901524
vn -0.281763 -0.433789 0.855825
vn -0.281763 -0.433789 0.855825
vn -0.281763 -0.433789 0.855825
vn -0.281763 -0.433789 0.855825
vn -0.640321 -0.028365 -0.767584
vn -0.640321 -0.028365 -0.767584
vn -0.640321 -0.028365 -0.767584
vn -0.640321 -0.028365 -0.767584
vn -0.998454 0.030409 0.046532
vn -0.998454 0.030409 0.046532
vn -0.998454 0.030409 0.046532
vn -0.998454 0.030409 0.046532
vn -0.547407 0.064264 0.834395
vn -0.547407 0.064264 0.834395
vn -0.547407 0.064264 0.834395
vn -0.547407 0.064264 0.834395
vn -0.501622 0.664787 -0.553565
vn -0.501622 0.664787 -0.553565
vn -0.501622 0.664787 -0.553565
vn -0.501622 0.664787 -0.553565
vn -0.557395 0.812929 0.168694
vn -0.557395 0.812929 0.168694
vn -0.557395 0.812929 0.168694
vn -0.557395 0.812929 0.168694
vn -0.576180 0.714217 0.397380
vn -0.576180 0.714216 0.397380
vn -0.576180 0.714217 0.397380
vn -0.576180 0.714217 0.397380
vn 0.047222 0.388436 -0.920265
vn 0.047222 0.388436 -0.920265
vn 0.047222 0.388435 -0.920265
vn 0.047222 0.388435 -0.920265
vn -0.024694 -0.391168 -0.919988
vn -0.024694 -0.391168 -0.919988
vn -0.024694 -0.391168 -0.919988
vn -0.024694 -0.391168 -0.919988
vn 0.000000 -0.048607 -0.998818
vn 0.000000 -0.048607 -0.998818
vn 0.000000 -0.048607 -0.998818
vn 0.000000 -0.048607 -0.998818
vn 0.000000 0.847450 -0.530876
vn 0.000000 0.847450 -0.530876
vn 0.000000 0.847450 -0.530876
vn 0.000000 0.847450 -0.530876
vn 0.000000 -0.230077 -0.973172
vn 0.000000 -0.230077 -0.973173
vn 0.000000 -0.230077 -0.973173
vn 0.000000 -0.230077 -0.973173
vn 0.000000 -0.952770 -0.303694
vn 0.000000 -0.952770 -0.303694
vn 0.000000 -0.952770 -0.303694
vn 0.000000 -0.952770 -0.303694
vn 0.000000 -0.987872 -0.155271
vn 0.000000 -0.987872 -0.155271
vn 0.000000 -0.987872 -0.155271
vn 0.000000 -0.987872 -0.155271
vn 0.000000 -0.645937 -0.763391
vn 0.000000 -0.645937 -0.763391
vn 0.000000 -0.645937 -0.763391
vn 0.000000 -0.645937 -0.763391
vn 0.000000 -0.986809 -0.161888
vn 0.000000 -0.986809 -0.161888
vn 0.000000 -0.986809 -0.161888
vn 0.000000 -0.986809 -0.161888
vn 0.000000 -0.530979 0.847385
vn 0.000000 -0.530979 0.847385
vn 0.000000 -0.530979 0.847385
vn 0.000000 -0.530979 0.847385
vn 0.000000 -0.788769 -0.614690
vn 0.000000 -0.788769 -0.614690
vn 0.000000 -0.788769 -0.614690
vn 0.000000 -0.788769 -0.614690
vn 0.000000 -0.996972 -0.077760
vn 0.000000 -0.996972 -0.077760
vn 0.000000 -0.996972 -0.077760
vn 0.000000 -0.996972 -0.077760
vn 0.000000 -0.943082 0.332561
vn 0.000000 -0.943082 0.332561
vn 0.000000 -0.943082 0.332561
vn 0.000000 -0.943082 0.332561
vn 0.000000 -0.513342 0.858184
vn 0.000000 -0.513342 0.858184
vn 0.000000 -0.513342 0.858184
vn 0.000000 -0.513342 0.858184
vn 0.000000 -0.382184 0.924086
vn 0.000000 -0.382184 0.924086
vn 0.000000 -0.382184 0.924086
vn 0.000000 -0.382184 0.924086
vn 0.000000 0.096015 0.995380
vn 0.000000 0.096015 0.995380
vn 0.000000 0.096015 0.995380
vn 0.000000 0.096015 0.995380
vn 0.000000 0.540570 0.841299
vn 0.000000 0.540570 0.841299
vn 0.000000 0.540570 0.841299
vn 0.000000 0.540570 0.841299
vn 0.000000 -0.144287 0.989536
vn 0.000000 -0.144287 0.989536
vn 0.000000 -0.144287 0.989536
vn 0.000000 -0.144287 0.989536
vn 0.000000 0.881567 0.472058
vn 0.000000 0.881567 0.472058
vn 0.000000 0.881567 0.472058
vn 0.000000 0.881567 0.472058
vn 0.000000 -0.832165 0.554529
vn 0.000000 -0.832165 0.554529
vn 0.000000 -0.832165 0.554529
vn 0.000000 -0.832164 0.554529
vn 0.000000 -0.326724 0.945120
vn 0.000000 -0.326724 0.945120
vn 0.000000 -0.326724 0.945120
vn 0.000000 -0.326724 0.945120
vn 0.000000 0.053855 0.998549
vn 0.000000 0.053855 0.998549
vn 0.000000 0.053855 0.998549
vn 0.000000 0.053855 0.998549
vn 0.000000 0.548500 0.836151
vn 0.000000 0.548500 0.836151
vn 0.000000 0.548500 0.836151
vn 0.000000 0.548500 0.836151
vn 0.000000 0.889914 -0.456129
vn 0.000000 0.889914 -0.456129
vn 0.000000 0.889914 -0.456129
vn 0.000000 0.889914 -0.456129
vn 0.000000 0.823750 0.566953
vn 0.000000 0.823750 0.566953
vn 0.000000 0.823750 0.566953
vn 0.000000 0.823750 0.566953
vn 0.000000 0.921955 -0.387297
vn 0.000000 0.921955 -0.387297
vn 0.000000 0.921955 -0.387297
vn 0.000000 0.921955 -0.387297
vn 0.000000 0.576177 -0.817325
vn 0.000000 0.576177 -0.817325
vn 0.000000 0.576177 -0.817325
vn 0.000000 0.576177 -0.817325
vn 0.000000 -0.042164 -0.999111
vn 0.000000 -0.042164 -0.999111
vn 0.000000 -0.042164 -0.999111
vn 0.000000 -0.042164 -0.999111
vn 0.000000 0.684628 -0.728892
vn 0.000000 0.684628 -0.728892
vn 0.000000 0.684628 -0.728892
vn 0.000000 0.684628 -0.728892
vn 0.059090 0.998118 0.016378
vn 0.059090 0.998118 0.016378
vn 0.059090 0.998118 0.016378
vn 0.059090 0.998118 0.016378
s off
g Rock6
usemtl initialShadingGroup
f 4/1/1 1/2/2 2/3/3 3/4/4
f 4/1/5 3/4/6 5/5/7 6/6/8
f 6/6/9 5/5/10 7/9/11 8/10/12
f 8/10/13 7/9/14 9/14/15 10/15/16
f 8/10/17 10/15/18 12/22/19 11/23/20
f 3/131/21 2/125/22 13/129/23 14/132/24
f 3/4/25 14/7/26 15/8/27 5/5/28
f 5/5/29 15/8/30 16/13/31 7/9/32
f 7/9/33 16/13/34 17/21/35 9/14/36
f 9/14/37 17/21/38 19/31/39 18/32/40
f 14/7/41 13/16/42 20/17/43 21/11/44
f 15/8/45 14/7/46 21/11/47 22/12/48
f 16/13/49 15/8/50 22/12/51 23/20/52
f 17/21/53 16/13/54 23/20/55 24/30/56
f 17/84/57 24/85/58 26/86/59 25/87/60
f 21/11/61 20/17/62 27/26/63 28/18/64
f 28/18/65 27/26/66 29/34/67 30/35/68
f 22/12/69 21/11/70 28/18/71 31/19/72
f 23/20/73 22/12/74 31/19/75 32/29/76
f 24/30/77 23/20/78 32/29/79 33/36/80
f 26/86/81 24/85/82 33/88/83 34/89/84
f 31/19/85 28/18/86 35/27/87 36/28/88
f 31/133/89 36/134/90 37/135/91 32/136/92
f 32/29/93 37/40/94 38/41/95 33/36/96
f 34/149/97 33/150/98 38/143/99 39/146/100
f 20/17/101 13/16/102 40/24/103 41/25/104
f 27/26/105 20/17/106 41/25/107 42/33/108
f 29/34/109 27/26/110 42/33/111 43/39/112
f 41/122/113 40/123/114 44/120/115 45/116/116
f 42/33/117 41/25/118 45/37/119 46/38/120
f 43/39/121 42/33/122 46/38/123 47/42/124
f 51/58/125 50/59/126 49/64/127 48/65/128
f 51/58/129 53/51/130 52/52/131 50/59/132
f 53/51/133 55/43/134 54/46/135 52/52/136
f 55/43/137 57/44/138 56/45/139 54/46/140
f 55/43/141 58/47/142 59/48/143 57/44/144
f 50/59/145 61/63/146 60/68/147 49/64/148
f 50/59/149 52/52/150 62/57/151 61/63/152
f 52/52/153 54/46/154 63/50/155 62/57/156
f 54/46/157 56/45/158 64/49/159 63/50/160
f 56/45/161 65/53/162 66/54/163 64/49/164
f 61/63/165 68/67/166 67/70/167 60/68/168
f 62/57/169 69/62/170 68/67/171 61/63/172
f 63/50/173 70/56/174 69/62/175 62/57/176
f 64/49/177 71/55/178 70/56/179 63/50/180
f 64/92/181 72/91/182 73/90/183 71/94/184
f 68/67/185 75/69/186 74/73/187 67/70/188
f 75/69/189 77/76/190 76/77/191 74/73/192
f 69/62/193 78/66/194 75/69/195 68/67/196
f 70/56/197 79/61/198 78/66/199 69/62/200
f 71/55/201 80/60/202 79/61/203 70/56/204
f 73/90/205 81/93/206 80/99/207 71/94/208
f 78/66/209 83/71/210 82/72/211 75/69/212
f 78/141/213 79/142/214 84/138/215 83/137/216
f 79/142/217 80/145/218 85/144/219 84/138/220
f 81/148/221 86/147/222 85/144/223 80/145/224
f 67/70/225 88/74/226 87/75/227 60/68/228
f 74/73/229 89/78/230 88/74/231 67/70/232
f 76/77/233 90/81/234 89/78/235 74/73/236
f 88/74/237 92/79/238 91/80/239 87/75/240
f 89/78/241 93/82/242 92/79/243 88/74/244
f 90/81/245 94/83/246 93/82/247 89/78/248
f 1/151/249 4/152/250 51/153/251 48/154/252
f 4/152/253 6/155/254 53/156/255 51/153/256
f 6/155/257 8/157/258 55/158/259 53/156/260
f 8/157/261 11/159/262 58/160/263 55/158/264
f 11/159/265 12/161/266 59/162/267 58/160/268
f 12/106/269 10/104/270 57/105/271 59/107/272
f 10/104/273 9/102/274 56/103/275 57/105/276
f 9/102/277 18/100/278 65/101/279 56/103/280
f 18/100/281 19/95/282 66/96/283 65/101/284
f 19/95/285 17/84/286 64/92/287 66/96/288
f 17/84/289 25/87/290 72/91/291 64/92/292
f 25/87/293 26/86/294 73/90/295 72/91/296
f 26/86/297 34/89/298 81/93/299 73/90/300
f 34/89/301 39/97/302 86/98/303 81/93/304
f 39/146/305 38/143/306 85/144/307 86/147/308
f 38/143/309 37/135/310 84/138/311 85/144/312
f 37/135/313 36/134/314 83/137/315 84/138/316
f 36/134/317 35/139/318 82/140/319 83/137/320
f 35/108/321 28/109/322 75/110/323 82/111/324
f 28/169/325 30/163/326 77/166/327 75/170/328
f 30/163/329 29/164/330 76/165/331 77/166/332
f 29/164/333 43/167/334 90/168/335 76/165/336
f 43/118/337 47/112/338 94/115/339 90/119/340
f 47/112/341 46/113/342 93/114/343 94/115/344
f 46/113/345 45/116/346 92/117/347 93/114/348
f 45/116/349 44/120/350 91/121/351 92/117/352
f 44/120/353 40/123/354 87/124/355 91/121/356
f 40/171/357 13/172/358 60/173/359 87/174/360
f 13/129/361 2/125/362 49/128/363 60/130/364
f 2/125/365 1/126/366 48/127/367 49/128/368
